<?xml version="1.0" standalone="no"?>
<!DOCTYPE svg PUBLIC "-//W3C//DTD SVG 20010904//EN"
 "http://www.w3.org/TR/2001/REC-SVG-20010904/DTD/svg10.dtd">
<svg version="1.0" xmlns="http://www.w3.org/2000/svg"
 width="1497.000000pt" height="1500.000000pt" viewBox="0 0 1497.000000 1500.000000"
 preserveAspectRatio="xMidYMid meet">
<metadata>
Created by potrace 1.10, written by Peter Selinger 2001-2011
</metadata>
<g transform="translate(0.000000,1500.000000) scale(0.100000,-0.100000)"
fill="#960089" stroke="none">
<path d="M5849 11681 c-19 -22 -49 -60 -67 -86 -51 -71 -287 -352 -356 -425
-35 -36 -71 -78 -81 -95 -10 -16 -109 -138 -219 -269 -111 -132 -248 -296
-306 -366 -58 -70 -148 -178 -201 -241 -53 -63 -102 -125 -109 -139 -7 -14
-45 -59 -85 -100 -86 -91 -307 -354 -360 -430 -21 -30 -53 -71 -72 -90 l-32
-35 -528 -6 c-291 -4 -586 -12 -658 -18 -318 -26 -624 -72 -860 -127 -38 -9
-91 -20 -117 -24 -26 -5 -56 -13 -67 -19 -11 -6 -29 -11 -40 -11 -11 0 -35 -6
-53 -14 -18 -7 -58 -21 -88 -31 -175 -56 -376 -131 -400 -151 -8 -6 -69 -40
-135 -74 -66 -35 -139 -76 -163 -92 -24 -15 -62 -38 -85 -49 -53 -27 -132 -85
-222 -163 -93 -82 -91 -80 -170 -177 -37 -46 -71 -86 -74 -89 -29 -24 -100
-125 -136 -193 -51 -95 -79 -188 -96 -321 -22 -166 20 -355 106 -480 69 -102
251 -228 422 -292 273 -103 706 -123 1053 -49 36 7 101 21 145 30 111 24 293
81 399 127 49 21 94 38 100 38 11 0 210 99 326 163 36 19 83 51 105 70 22 18
65 48 97 65 86 48 233 153 382 272 74 60 141 112 149 117 14 7 357 336 537
514 58 57 264 290 330 373 14 17 41 48 61 69 l37 37 463 0 c268 0 470 -4 479
-10 15 -9 6 -44 -50 -190 -42 -109 -51 -136 -72 -200 -11 -36 -31 -96 -45
-135 -89 -248 -116 -327 -135 -380 -11 -33 -26 -67 -33 -75 -7 -8 -15 -24 -18
-35 -3 -11 -15 -45 -27 -75 -11 -30 -41 -113 -66 -185 -25 -71 -59 -168 -75
-215 -17 -47 -33 -100 -36 -117 l-5 -33 553 0 c305 0 560 4 567 8 6 5 33 71
58 148 24 76 60 173 78 214 32 70 47 107 83 205 27 70 40 109 61 175 12 36 45
130 73 210 28 80 74 213 103 295 l52 150 714 0 c709 0 715 0 714 -20 -1 -11
-11 -45 -23 -75 -12 -30 -26 -71 -31 -90 -5 -19 -31 -98 -58 -175 -27 -77 -62
-176 -77 -220 -15 -44 -31 -84 -35 -90 -4 -5 -17 -37 -28 -70 -12 -33 -31 -85
-42 -115 -12 -30 -26 -68 -30 -85 -5 -16 -25 -75 -45 -130 -21 -55 -41 -113
-45 -130 -11 -40 -57 -178 -120 -355 -28 -80 -55 -161 -60 -180 -5 -19 -19
-60 -31 -90 -11 -30 -23 -64 -26 -75 -2 -11 -9 -29 -14 -40 -4 -11 -21 -56
-35 -100 -15 -44 -33 -90 -41 -101 -7 -12 -33 -82 -58 -155 -24 -74 -53 -159
-65 -189 -12 -30 -26 -68 -30 -85 -5 -16 -52 -156 -104 -310 -53 -154 -106
-309 -117 -345 -12 -36 -27 -81 -34 -100 -6 -19 -18 -51 -24 -70 -7 -19 -28
-82 -48 -139 -29 -85 -33 -105 -22 -112 8 -5 163 -9 345 -9 429 0 484 8 672
97 81 39 185 135 262 243 66 92 165 214 245 300 80 86 200 229 206 246 7 19
259 321 325 389 34 35 77 86 95 113 36 52 334 417 381 464 14 16 64 74 109
130 115 143 182 225 233 283 71 83 130 158 154 197 27 43 85 95 90 80 2 -6 -8
-35 -22 -64 -13 -29 -53 -127 -87 -218 -34 -91 -71 -187 -81 -215 -11 -27 -36
-97 -58 -155 -21 -58 -47 -127 -58 -155 -20 -51 -113 -301 -159 -430 -14 -38
-31 -83 -38 -100 -7 -16 -20 -50 -31 -75 -10 -25 -23 -52 -29 -60 -16 -22 -32
-61 -80 -195 -24 -66 -57 -158 -74 -205 -81 -217 -76 -195 -76 -340 0 -151 11
-185 79 -253 79 -79 189 -111 386 -111 141 0 147 1 225 33 44 18 94 40 110 48
87 47 239 191 356 338 31 39 85 97 120 130 67 62 285 303 354 390 22 28 93
104 159 170 120 121 214 224 340 374 38 45 117 131 175 190 58 59 138 141 176
181 63 66 70 71 73 51 2 -13 -3 -40 -11 -60 -28 -69 -79 -196 -92 -231 -7 -19
-23 -59 -35 -89 -12 -29 -33 -88 -47 -130 -14 -42 -39 -103 -56 -136 -26 -53
-60 -137 -87 -215 -5 -14 -18 -50 -30 -80 -12 -30 -24 -64 -27 -75 -3 -11 -11
-33 -18 -50 -17 -38 -34 -85 -79 -206 -72 -199 -82 -337 -31 -425 31 -52 59
-75 139 -112 114 -53 173 -57 931 -57 800 0 857 4 1040 73 113 42 268 150 313
218 37 54 86 179 79 198 -6 14 -79 16 -697 16 -764 0 -715 -4 -692 63 19 58
42 122 51 142 5 11 16 40 26 65 9 25 22 56 27 70 6 14 14 39 18 55 5 17 18 55
30 85 12 30 25 67 30 82 4 14 19 46 33 70 14 23 42 90 62 148 37 105 80 220
117 315 11 28 23 61 28 75 5 14 18 50 30 80 12 30 35 96 52 145 26 78 92 255
159 430 11 28 29 77 40 110 12 33 26 67 33 75 19 23 44 112 58 205 10 68 9
100 -1 162 -18 109 -30 132 -109 212 -52 53 -88 80 -148 108 l-79 38 -150 -1
c-259 -1 -343 -35 -529 -214 -118 -113 -536 -532 -587 -587 -86 -94 -758 -753
-767 -753 -22 0 -11 43 34 133 8 16 14 35 14 42 0 8 6 29 14 47 16 37 27 68
81 213 21 55 54 136 75 180 21 44 47 107 58 140 12 33 31 85 42 115 12 30 24
64 27 75 3 11 9 25 13 30 6 9 66 172 148 400 13 39 30 84 37 100 51 124 72
197 85 298 14 98 3 186 -33 266 -26 59 -108 139 -177 173 -94 46 -152 53 -303
39 -158 -15 -250 -38 -372 -90 -16 -7 -45 -20 -64 -28 -79 -33 -254 -193 -370
-338 -30 -38 -87 -101 -126 -140 -76 -76 -314 -346 -329 -373 -13 -25 -132
-160 -191 -217 -70 -68 -241 -259 -262 -293 -23 -37 -145 -174 -268 -302 -55
-58 -123 -131 -150 -162 -27 -32 -53 -54 -58 -49 -4 4 17 82 48 172 31 90 72
214 91 274 19 61 41 125 49 143 8 18 15 38 15 44 0 6 7 19 15 28 8 9 64 165
124 346 117 350 126 379 147 434 7 19 53 159 103 311 80 245 91 287 97 375 4
64 2 119 -5 154 -13 59 -61 144 -89 155 -9 4 -46 19 -82 33 l-65 26 -1077 3
c-1039 4 -1077 4 -1083 22 -3 11 1 34 9 52 8 19 31 84 51 144 20 61 59 175 87
255 28 80 54 159 58 175 5 17 18 55 30 85 39 103 51 135 56 155 3 11 10 29 15
40 4 11 24 67 44 124 19 57 39 109 44 115 6 6 21 45 35 86 13 41 34 100 46
130 12 30 25 69 30 85 5 17 18 55 30 85 12 30 26 71 30 90 5 19 15 53 24 75
31 83 118 333 138 395 11 36 27 81 35 102 8 20 12 41 9 47 -5 8 -229 11 -760
11 l-754 0 -33 -39z m231 -596 c0 -13 -6 -39 -14 -57 -12 -29 -34 -84 -56
-143 -4 -11 -24 -54 -43 -95 -39 -80 -97 -228 -97 -245 0 -6 -20 -60 -45 -120
-25 -61 -45 -115 -45 -122 0 -6 -6 -24 -14 -40 -8 -15 -21 -46 -29 -68 -8 -22
-22 -58 -30 -80 -8 -22 -39 -105 -67 -185 -52 -144 -59 -163 -100 -270 -12
-30 -30 -82 -41 -115 -24 -72 -46 -116 -67 -132 -12 -10 -95 -13 -339 -13
-366 0 -359 -2 -304 73 18 23 45 62 61 86 15 25 46 63 68 85 52 53 322 398
322 411 0 10 179 236 210 265 31 29 151 181 200 255 19 28 48 68 65 90 54 69
224 277 276 340 28 33 55 70 60 83 11 29 29 28 29 -3z m-2576 -2191 c20 -7 11
-26 -50 -104 -71 -93 -456 -472 -538 -530 -154 -110 -233 -169 -352 -257 -123
-91 -163 -115 -335 -197 -136 -64 -259 -102 -377 -117 -174 -22 -277 9 -339
102 -24 36 -28 54 -31 134 -8 184 44 306 199 469 187 195 404 314 704 385 225
54 431 83 710 101 94 6 186 12 205 14 69 6 189 6 204 0z"/>
</g>
</svg>
